<?xml version="1.0" encoding="UTF-8"?>
<svg width="16px" height="13px" viewBox="0 0 16 13" version="1.1" xmlns="http://www.w3.org/2000/svg" xmlns:xlink="http://www.w3.org/1999/xlink">
    <!-- Generator: sketchtool 54.1 (76490) - https://sketchapp.com -->
    <title>E4B5A159-E650-40E9-9CF2-BFDEB81ED509</title>
    <desc>Created with sketchtool.</desc>
    <g id="desktop" stroke="none" stroke-width="1" fill="none" fill-rule="evenodd">
        <g id="Home-New" transform="translate(-997.000000, -1405.000000)" fill="#FF4E4E">
            <g id="Arrows-Copy-11" transform="translate(997.000000, 1405.000000)">
                <g id="Group-13-Copy">
                    <polygon id="Fill-1" points="8.469 7.2462 10.885 7.2462 10.885 4.8302 8.469 4.8302"></polygon>
                    <polygon id="Fill-2" points="10.885 4.8302 13.3 4.8302 13.3 2.4152 10.885 2.4152"></polygon>
                    <polygon id="Fill-3" points="13.3 2.4162 15.716 2.4162 15.716 0.0002 13.3 0.0002"></polygon>
                    <polygon id="Fill-4" points="8.47 7.2462 10.886 7.2462 10.886 4.8302 8.47 4.8302"></polygon>
                    <polygon id="Fill-5" points="10.885 9.6612 13.3 9.6612 13.3 7.2462 10.885 7.2462"></polygon>
                    <polygon id="Fill-6" points="13.3 12.0772 15.716 12.0772 15.716 9.6612 13.3 9.6612"></polygon>
                    <polygon id="Fill-7" points="0 7.2472 2.416 7.2472 2.416 4.8302 0 4.8302"></polygon>
                    <polygon id="Fill-8" points="2.416 4.8302 4.831 4.8302 4.831 2.4152 2.416 2.4152"></polygon>
                    <polygon id="Fill-9" points="4.83 2.4162 7.246 2.4162 7.246 0.0002 4.83 0.0002"></polygon>
                    <polygon id="Fill-10" points="0 7.2472 2.416 7.2472 2.416 4.8302 0 4.8302"></polygon>
                    <polygon id="Fill-11" points="2.416 9.6612 4.831 9.6612 4.831 7.2462 2.416 7.2462"></polygon>
                    <polygon id="Fill-12" points="4.83 12.0772 7.246 12.0772 7.246 9.6612 4.83 9.6612"></polygon>
                </g>
            </g>
        </g>
    </g>
</svg>